<svg xmlns="http://www.w3.org/2000/svg" style="display:none"><symbol id="i-activity" viewBox="0 0 24 24" fill="none" stroke="currentColor" stroke-width="2" stroke-linecap="round" stroke-linejoin="round"><path stroke="none" d="M0 0h24v24H0z" fill="none"/>
  <path d="M3 12h4l3 8l4 -16l3 8h4" /></symbol><symbol id="i-alert-circle" viewBox="0 0 24 24" fill="none" stroke="currentColor" stroke-width="2" stroke-linecap="round" stroke-linejoin="round"><path stroke="none" d="M0 0h24v24H0z" fill="none"/>
  <path d="M3 12a9 9 0 1 0 18 0a9 9 0 0 0 -18 0" />
  <path d="M12 8v4" />
  <path d="M12 16h.01" /></symbol><symbol id="i-alert-triangle" viewBox="0 0 24 24" fill="none" stroke="currentColor" stroke-width="2" stroke-linecap="round" stroke-linejoin="round"><path stroke="none" d="M0 0h24v24H0z" fill="none"/>
  <path d="M12 9v4" />
  <path d="M10.363 3.591l-8.106 13.534a1.914 1.914 0 0 0 1.636 2.871h16.214a1.914 1.914 0 0 0 1.636 -2.87l-8.106 -13.536a1.914 1.914 0 0 0 -3.274 0z" />
  <path d="M12 16h.01" /></symbol><symbol id="i-ambulance" viewBox="0 0 24 24" fill="none" stroke="currentColor" stroke-width="2" stroke-linecap="round" stroke-linejoin="round"><path stroke="none" d="M0 0h24v24H0z" fill="none"/>
  <path d="M7 17m-2 0a2 2 0 1 0 4 0a2 2 0 1 0 -4 0" />
  <path d="M17 17m-2 0a2 2 0 1 0 4 0a2 2 0 1 0 -4 0" />
  <path d="M5 17h-2v-11a1 1 0 0 1 1 -1h9v12m-4 0h6m4 0h2v-6h-8m0 -5h5l3 5" />
  <path d="M6 10h4m-2 -2v4" /></symbol><symbol id="i-arrow-right" viewBox="0 0 24 24" fill="none" stroke="currentColor" stroke-width="2" stroke-linecap="round" stroke-linejoin="round"><path stroke="none" d="M0 0h24v24H0z" fill="none"/>
  <path d="M5 12l14 0" />
  <path d="M13 18l6 -6" />
  <path d="M13 6l6 6" /></symbol><symbol id="i-arrow-up" viewBox="0 0 24 24" fill="none" stroke="currentColor" stroke-width="2" stroke-linecap="round" stroke-linejoin="round"><path stroke="none" d="M0 0h24v24H0z" fill="none"/>
  <path d="M12 5l0 14" />
  <path d="M18 11l-6 -6" />
  <path d="M6 11l6 -6" /></symbol><symbol id="i-article" viewBox="0 0 24 24" fill="none" stroke="currentColor" stroke-width="2" stroke-linecap="round" stroke-linejoin="round"><path stroke="none" d="M0 0h24v24H0z" fill="none"/>
  <path d="M3 4m0 2a2 2 0 0 1 2 -2h14a2 2 0 0 1 2 2v12a2 2 0 0 1 -2 2h-14a2 2 0 0 1 -2 -2z" />
  <path d="M7 8h10" />
  <path d="M7 12h10" />
  <path d="M7 16h10" /></symbol><symbol id="i-award" viewBox="0 0 24 24" fill="none" stroke="currentColor" stroke-width="2" stroke-linecap="round" stroke-linejoin="round"><path stroke="none" d="M0 0h24v24H0z" fill="none"/>
  <path d="M12 9m-6 0a6 6 0 1 0 12 0a6 6 0 1 0 -12 0" />
  <path d="M12 15l3.4 5.89l1.598 -3.233l3.598 .232l-3.4 -5.889" />
  <path d="M6.802 12l-3.4 5.89l3.598 -.233l1.598 3.232l3.4 -5.889" /></symbol><symbol id="i-bolt" viewBox="0 0 24 24" fill="none" stroke="currentColor" stroke-width="2" stroke-linecap="round" stroke-linejoin="round"><path stroke="none" d="M0 0h24v24H0z" fill="none"/>
  <path d="M13 3l0 7l6 0l-8 11l0 -7l-6 0l8 -11" /></symbol><symbol id="i-brand-facebook" viewBox="0 0 24 24" fill="none" stroke="currentColor" stroke-width="2" stroke-linecap="round" stroke-linejoin="round"><path stroke="none" d="M0 0h24v24H0z" fill="none"/>
  <path d="M7 10v4h3v7h4v-7h3l1 -4h-4v-2a1 1 0 0 1 1 -1h3v-4h-3a5 5 0 0 0 -5 5v2h-3" /></symbol><symbol id="i-brand-instagram" viewBox="0 0 24 24" fill="none" stroke="currentColor" stroke-width="2" stroke-linecap="round" stroke-linejoin="round"><path stroke="none" d="M0 0h24v24H0z" fill="none"/>
  <path d="M4 4m0 4a4 4 0 0 1 4 -4h8a4 4 0 0 1 4 4v8a4 4 0 0 1 -4 4h-8a4 4 0 0 1 -4 -4z" />
  <path d="M12 12m-3 0a3 3 0 1 0 6 0a3 3 0 1 0 -6 0" />
  <path d="M16.5 7.5l0 .01" /></symbol><symbol id="i-building-hospital" viewBox="0 0 24 24" fill="none" stroke="currentColor" stroke-width="2" stroke-linecap="round" stroke-linejoin="round"><path stroke="none" d="M0 0h24v24H0z" fill="none"/>
  <path d="M3 21l18 0" />
  <path d="M5 21v-16a2 2 0 0 1 2 -2h10a2 2 0 0 1 2 2v16" />
  <path d="M9 21v-4a2 2 0 0 1 2 -2h2a2 2 0 0 1 2 2v4" />
  <path d="M10 9l4 0" />
  <path d="M12 7l0 4" /></symbol><symbol id="i-calculator" viewBox="0 0 24 24" fill="none" stroke="currentColor" stroke-width="2" stroke-linecap="round" stroke-linejoin="round"><path stroke="none" d="M0 0h24v24H0z" fill="none"/>
  <path d="M4 3m0 2a2 2 0 0 1 2 -2h12a2 2 0 0 1 2 2v14a2 2 0 0 1 -2 2h-12a2 2 0 0 1 -2 -2z" />
  <path d="M8 7m0 1a1 1 0 0 1 1 -1h6a1 1 0 0 1 1 1v1a1 1 0 0 1 -1 1h-6a1 1 0 0 1 -1 -1z" />
  <path d="M8 14l0 .01" />
  <path d="M12 14l0 .01" />
  <path d="M16 14l0 .01" />
  <path d="M8 17l0 .01" />
  <path d="M12 17l0 .01" />
  <path d="M16 17l0 .01" /></symbol><symbol id="i-calendar" viewBox="0 0 24 24" fill="none" stroke="currentColor" stroke-width="2" stroke-linecap="round" stroke-linejoin="round"><path stroke="none" d="M0 0h24v24H0z" fill="none"/>
  <path d="M4 7a2 2 0 0 1 2 -2h12a2 2 0 0 1 2 2v12a2 2 0 0 1 -2 2h-12a2 2 0 0 1 -2 -2v-12z" />
  <path d="M16 3v4" />
  <path d="M8 3v4" />
  <path d="M4 11h16" />
  <path d="M11 15h1" />
  <path d="M12 15v3" /></symbol><symbol id="i-calendar-stats" viewBox="0 0 24 24" fill="none" stroke="currentColor" stroke-width="2" stroke-linecap="round" stroke-linejoin="round"><path stroke="none" d="M0 0h24v24H0z" fill="none"/>
  <path d="M11.795 21h-6.795a2 2 0 0 1 -2 -2v-12a2 2 0 0 1 2 -2h12a2 2 0 0 1 2 2v4" />
  <path d="M18 14v4h4" />
  <path d="M18 18m-4 0a4 4 0 1 0 8 0a4 4 0 1 0 -8 0" />
  <path d="M15 3v4" />
  <path d="M7 3v4" />
  <path d="M3 11h16" /></symbol><symbol id="i-camera" viewBox="0 0 24 24" fill="none" stroke="currentColor" stroke-width="2" stroke-linecap="round" stroke-linejoin="round"><path stroke="none" d="M0 0h24v24H0z" fill="none"/>
  <path d="M5 7h1a2 2 0 0 0 2 -2a1 1 0 0 1 1 -1h6a1 1 0 0 1 1 1a2 2 0 0 0 2 2h1a2 2 0 0 1 2 2v9a2 2 0 0 1 -2 2h-14a2 2 0 0 1 -2 -2v-9a2 2 0 0 1 2 -2" />
  <path d="M9 13a3 3 0 1 0 6 0a3 3 0 0 0 -6 0" /></symbol><symbol id="i-certificate" viewBox="0 0 24 24" fill="none" stroke="currentColor" stroke-width="2" stroke-linecap="round" stroke-linejoin="round"><path stroke="none" d="M0 0h24v24H0z" fill="none"/>
  <path d="M15 15m-3 0a3 3 0 1 0 6 0a3 3 0 1 0 -6 0" />
  <path d="M13 17.5v4.5l2 -1.5l2 1.5v-4.5" />
  <path d="M10 19h-5a2 2 0 0 1 -2 -2v-10c0 -1.1 .9 -2 2 -2h14a2 2 0 0 1 2 2v10a2 2 0 0 1 -1 1.73" />
  <path d="M6 9l12 0" />
  <path d="M6 12l3 0" />
  <path d="M6 15l2 0" /></symbol><symbol id="i-check" viewBox="0 0 24 24" fill="none" stroke="currentColor" stroke-width="2" stroke-linecap="round" stroke-linejoin="round"><path stroke="none" d="M0 0h24v24H0z" fill="none"/>
  <path d="M5 12l5 5l10 -10" /></symbol><symbol id="i-chevron-down" viewBox="0 0 24 24" fill="none" stroke="currentColor" stroke-width="2" stroke-linecap="round" stroke-linejoin="round"><path stroke="none" d="M0 0h24v24H0z" fill="none"/>
  <path d="M6 9l6 6l6 -6" /></symbol><symbol id="i-chevron-right" viewBox="0 0 24 24" fill="none" stroke="currentColor" stroke-width="2" stroke-linecap="round" stroke-linejoin="round"><path stroke="none" d="M0 0h24v24H0z" fill="none"/>
  <path d="M9 6l6 6l-6 6" /></symbol><symbol id="i-circle-check" viewBox="0 0 24 24" fill="none" stroke="currentColor" stroke-width="2" stroke-linecap="round" stroke-linejoin="round"><path stroke="none" d="M0 0h24v24H0z" fill="none"/>
  <path d="M12 12m-9 0a9 9 0 1 0 18 0a9 9 0 1 0 -18 0" />
  <path d="M9 12l2 2l4 -4" /></symbol><symbol id="i-circle-filled" viewBox="0 0 24 24" fill="currentColor" stroke="none"><path stroke="none" d="M0 0h24v24H0z" fill="none"/>
  <path d="M7 3.34a10 10 0 1 1 -4.995 8.984l-.005 -.324l.005 -.324a10 10 0 0 1 4.995 -8.336z" /></symbol><symbol id="i-clipboard-heart" viewBox="0 0 24 24" fill="none" stroke="currentColor" stroke-width="2" stroke-linecap="round" stroke-linejoin="round"><path stroke="none" d="M0 0h24v24H0z" fill="none"/>
  <path d="M9 5h-2a2 2 0 0 0 -2 2v12a2 2 0 0 0 2 2h10a2 2 0 0 0 2 -2v-12a2 2 0 0 0 -2 -2h-2" />
  <path d="M9 3m0 2a2 2 0 0 1 2 -2h2a2 2 0 0 1 2 2v0a2 2 0 0 1 -2 2h-2a2 2 0 0 1 -2 -2z" />
  <path d="M11.993 16.75l2.747 -2.815a1.9 1.9 0 0 0 0 -2.632a1.775 1.775 0 0 0 -2.56 0l-.183 .188l-.183 -.189a1.775 1.775 0 0 0 -2.56 0a1.899 1.899 0 0 0 0 2.632l2.738 2.825z" /></symbol><symbol id="i-clipboard-list" viewBox="0 0 24 24" fill="none" stroke="currentColor" stroke-width="2" stroke-linecap="round" stroke-linejoin="round"><path stroke="none" d="M0 0h24v24H0z" fill="none"/>
  <path d="M9 5h-2a2 2 0 0 0 -2 2v12a2 2 0 0 0 2 2h10a2 2 0 0 0 2 -2v-12a2 2 0 0 0 -2 -2h-2" />
  <path d="M9 3m0 2a2 2 0 0 1 2 -2h2a2 2 0 0 1 2 2v0a2 2 0 0 1 -2 2h-2a2 2 0 0 1 -2 -2z" />
  <path d="M9 12l.01 0" />
  <path d="M13 12l2 0" />
  <path d="M9 16l.01 0" />
  <path d="M13 16l2 0" /></symbol><symbol id="i-clock" viewBox="0 0 24 24" fill="none" stroke="currentColor" stroke-width="2" stroke-linecap="round" stroke-linejoin="round"><path stroke="none" d="M0 0h24v24H0z" fill="none"/>
  <path d="M3 12a9 9 0 1 0 18 0a9 9 0 0 0 -18 0" />
  <path d="M12 7v5l3 3" /></symbol><symbol id="i-coin" viewBox="0 0 24 24" fill="none" stroke="currentColor" stroke-width="2" stroke-linecap="round" stroke-linejoin="round"><path stroke="none" d="M0 0h24v24H0z" fill="none"/>
  <path d="M12 12m-9 0a9 9 0 1 0 18 0a9 9 0 1 0 -18 0" />
  <path d="M14.8 9a2 2 0 0 0 -1.8 -1h-2a2 2 0 1 0 0 4h2a2 2 0 1 1 0 4h-2a2 2 0 0 1 -1.8 -1" />
  <path d="M12 7v10" /></symbol><symbol id="i-cookie" viewBox="0 0 24 24" fill="none" stroke="currentColor" stroke-width="2" stroke-linecap="round" stroke-linejoin="round"><path stroke="none" d="M0 0h24v24H0z" fill="none"/>
  <path stroke="none" d="M0 0h24v24H0z" />
  <path d="M8 13v.01" />
  <path d="M12 17v.01" />
  <path d="M12 12v.01" />
  <path d="M16 14v.01" />
  <path d="M11 8v.01" />
  <path d="M13.148 3.476l2.667 1.104a4 4 0 0 0 4.656 6.14l.053 .132a3 3 0 0 1 0 2.296q -.745 1.18 -1.024 1.852q -.283 .684 -.66 2.216a3 3 0 0 1 -1.624 1.623q -1.572 .394 -2.216 .661q -.712 .295 -1.852 1.024a3 3 0 0 1 -2.296 0q -1.203 -.754 -1.852 -1.024q -.707 -.292 -2.216 -.66a3 3 0 0 1 -1.623 -1.624q -.397 -1.577 -.661 -2.216q -.298 -.718 -1.024 -1.852a3 3 0 0 1 0 -2.296q .719 -1.116 1.024 -1.852q .257 -.62 .66 -2.216a3 3 0 0 1 1.624 -1.623q 1.547 -.384 2.216 -.661q .687 -.285 1.852 -1.024a3 3 0 0 1 2.296 0" /></symbol><symbol id="i-credit-card" viewBox="0 0 24 24" fill="none" stroke="currentColor" stroke-width="2" stroke-linecap="round" stroke-linejoin="round"><path stroke="none" d="M0 0h24v24H0z" fill="none"/>
  <path d="M3 5m0 3a3 3 0 0 1 3 -3h12a3 3 0 0 1 3 3v8a3 3 0 0 1 -3 3h-12a3 3 0 0 1 -3 -3z" />
  <path d="M3 10l18 0" />
  <path d="M7 15l.01 0" />
  <path d="M11 15l2 0" /></symbol><symbol id="i-crown" viewBox="0 0 24 24" fill="none" stroke="currentColor" stroke-width="2" stroke-linecap="round" stroke-linejoin="round"><path stroke="none" d="M0 0h24v24H0z" fill="none"/>
  <path d="M12 6l4 6l5 -4l-2 10h-14l-2 -10l5 4z" /></symbol><symbol id="i-currency-dollar" viewBox="0 0 24 24" fill="none" stroke="currentColor" stroke-width="2" stroke-linecap="round" stroke-linejoin="round"><path stroke="none" d="M0 0h24v24H0z" fill="none"/>
  <path d="M16.7 8a3 3 0 0 0 -2.7 -2h-4a3 3 0 0 0 0 6h4a3 3 0 0 1 0 6h-4a3 3 0 0 1 -2.7 -2" />
  <path d="M12 3v3m0 12v3" /></symbol><symbol id="i-external-link" viewBox="0 0 24 24" fill="none" stroke="currentColor" stroke-width="2" stroke-linecap="round" stroke-linejoin="round"><path stroke="none" d="M0 0h24v24H0z" fill="none"/>
  <path d="M12 6h-6a2 2 0 0 0 -2 2v10a2 2 0 0 0 2 2h10a2 2 0 0 0 2 -2v-6" />
  <path d="M11 13l9 -9" />
  <path d="M15 4h5v5" /></symbol><symbol id="i-eye" viewBox="0 0 24 24" fill="none" stroke="currentColor" stroke-width="2" stroke-linecap="round" stroke-linejoin="round"><path stroke="none" d="M0 0h24v24H0z" fill="none"/>
  <path d="M10 12a2 2 0 1 0 4 0a2 2 0 0 0 -4 0" />
  <path d="M21 12c-2.4 4 -5.4 6 -9 6c-3.6 0 -6.6 -2 -9 -6c2.4 -4 5.4 -6 9 -6c3.6 0 6.6 2 9 6" /></symbol><symbol id="i-face-id" viewBox="0 0 24 24" fill="none" stroke="currentColor" stroke-width="2" stroke-linecap="round" stroke-linejoin="round"><path stroke="none" d="M0 0h24v24H0z" fill="none"/>
  <path d="M4 8v-2a2 2 0 0 1 2 -2h2" />
  <path d="M4 16v2a2 2 0 0 0 2 2h2" />
  <path d="M16 4h2a2 2 0 0 1 2 2v2" />
  <path d="M16 20h2a2 2 0 0 0 2 -2v-2" />
  <path d="M9 10l.01 0" />
  <path d="M15 10l.01 0" />
  <path d="M9.5 15a3.5 3.5 0 0 0 5 0" /></symbol><symbol id="i-file-description" viewBox="0 0 24 24" fill="none" stroke="currentColor" stroke-width="2" stroke-linecap="round" stroke-linejoin="round"><path stroke="none" d="M0 0h24v24H0z" fill="none"/>
  <path d="M14 3v4a1 1 0 0 0 1 1h4" />
  <path d="M17 21h-10a2 2 0 0 1 -2 -2v-14a2 2 0 0 1 2 -2h7l5 5v11a2 2 0 0 1 -2 2z" />
  <path d="M9 17h6" />
  <path d="M9 13h6" /></symbol><symbol id="i-file-text" viewBox="0 0 24 24" fill="none" stroke="currentColor" stroke-width="2" stroke-linecap="round" stroke-linejoin="round"><path stroke="none" d="M0 0h24v24H0z" fill="none"/>
  <path d="M14 3v4a1 1 0 0 0 1 1h4" />
  <path d="M17 21h-10a2 2 0 0 1 -2 -2v-14a2 2 0 0 1 2 -2h7l5 5v11a2 2 0 0 1 -2 2z" />
  <path d="M9 9l1 0" />
  <path d="M9 13l6 0" />
  <path d="M9 17l6 0" /></symbol><symbol id="i-files" viewBox="0 0 24 24" fill="none" stroke="currentColor" stroke-width="2" stroke-linecap="round" stroke-linejoin="round"><path stroke="none" d="M0 0h24v24H0z" fill="none"/>
  <path d="M15 3v4a1 1 0 0 0 1 1h4" />
  <path d="M18 17h-7a2 2 0 0 1 -2 -2v-10a2 2 0 0 1 2 -2h4l5 5v7a2 2 0 0 1 -2 2z" />
  <path d="M16 17v2a2 2 0 0 1 -2 2h-7a2 2 0 0 1 -2 -2v-10a2 2 0 0 1 2 -2h2" /></symbol><symbol id="i-grid-dots" viewBox="0 0 24 24" fill="none" stroke="currentColor" stroke-width="2" stroke-linecap="round" stroke-linejoin="round"><path stroke="none" d="M0 0h24v24H0z" fill="none"/>
  <path d="M5 5m-1 0a1 1 0 1 0 2 0a1 1 0 1 0 -2 0" />
  <path d="M12 5m-1 0a1 1 0 1 0 2 0a1 1 0 1 0 -2 0" />
  <path d="M19 5m-1 0a1 1 0 1 0 2 0a1 1 0 1 0 -2 0" />
  <path d="M5 12m-1 0a1 1 0 1 0 2 0a1 1 0 1 0 -2 0" />
  <path d="M12 12m-1 0a1 1 0 1 0 2 0a1 1 0 1 0 -2 0" />
  <path d="M19 12m-1 0a1 1 0 1 0 2 0a1 1 0 1 0 -2 0" />
  <path d="M5 19m-1 0a1 1 0 1 0 2 0a1 1 0 1 0 -2 0" />
  <path d="M12 19m-1 0a1 1 0 1 0 2 0a1 1 0 1 0 -2 0" />
  <path d="M19 19m-1 0a1 1 0 1 0 2 0a1 1 0 1 0 -2 0" /></symbol><symbol id="i-heart" viewBox="0 0 24 24" fill="none" stroke="currentColor" stroke-width="2" stroke-linecap="round" stroke-linejoin="round"><path stroke="none" d="M0 0h24v24H0z" fill="none"/>
  <path d="M19.5 12.572l-7.5 7.428l-7.5 -7.428a5 5 0 1 1 7.5 -6.566a5 5 0 1 1 7.5 6.572" /></symbol><symbol id="i-heart-handshake" viewBox="0 0 24 24" fill="none" stroke="currentColor" stroke-width="2" stroke-linecap="round" stroke-linejoin="round"><path stroke="none" d="M0 0h24v24H0z" fill="none"/>
  <path d="M19.5 12.572l-7.5 7.428l-7.5 -7.428a5 5 0 1 1 7.5 -6.566a5 5 0 1 1 7.5 6.572" />
  <path d="M12 6l-3.293 3.293a1 1 0 0 0 0 1.414l.543 .543c.69 .69 1.81 .69 2.5 0l1 -1a3.182 3.182 0 0 1 4.5 0l2.25 2.25" />
  <path d="M12.5 15.5l2 2" />
  <path d="M15 13l2 2" /></symbol><symbol id="i-heart-rate-monitor" viewBox="0 0 24 24" fill="none" stroke="currentColor" stroke-width="2" stroke-linecap="round" stroke-linejoin="round"><path stroke="none" d="M0 0h24v24H0z" fill="none"/>
  <path d="M3 4m0 1a1 1 0 0 1 1 -1h16a1 1 0 0 1 1 1v10a1 1 0 0 1 -1 1h-16a1 1 0 0 1 -1 -1z" />
  <path d="M7 20h10" />
  <path d="M9 16v4" />
  <path d="M15 16v4" />
  <path d="M7 10h2l2 3l2 -6l1 3h3" /></symbol><symbol id="i-home" viewBox="0 0 24 24" fill="none" stroke="currentColor" stroke-width="2" stroke-linecap="round" stroke-linejoin="round"><path stroke="none" d="M0 0h24v24H0z" fill="none"/>
  <path d="M5 12l-2 0l9 -9l9 9l-2 0" />
  <path d="M5 12v7a2 2 0 0 0 2 2h10a2 2 0 0 0 2 -2v-7" />
  <path d="M9 21v-6a2 2 0 0 1 2 -2h2a2 2 0 0 1 2 2v6" /></symbol><symbol id="i-id" viewBox="0 0 24 24" fill="none" stroke="currentColor" stroke-width="2" stroke-linecap="round" stroke-linejoin="round"><path stroke="none" d="M0 0h24v24H0z" fill="none"/>
  <path d="M3 4m0 3a3 3 0 0 1 3 -3h12a3 3 0 0 1 3 3v10a3 3 0 0 1 -3 3h-12a3 3 0 0 1 -3 -3z" />
  <path d="M9 10m-2 0a2 2 0 1 0 4 0a2 2 0 1 0 -4 0" />
  <path d="M15 8l2 0" />
  <path d="M15 12l2 0" />
  <path d="M7 16l10 0" /></symbol><symbol id="i-implant" viewBox="0 0 24 24" fill="none" stroke-width="1.75" stroke-linecap="round" stroke-linejoin="round"><rect x="8" y="2" width="8" height="6" rx="2" stroke="currentColor" stroke-width="1.5"/>
  <path d="M10 8h4v2H9.5L9 12h6l-.5-2H10z" stroke="currentColor" stroke-width="1.5" stroke-linecap="round" stroke-linejoin="round"/>
  <path d="M9.5 12l-.8 2h6.6l-.8-2" stroke="currentColor" stroke-width="1.5" stroke-linecap="round" stroke-linejoin="round"/>
  <path d="M8.7 14l-.7 2.5h6l-.7-2.5" stroke="currentColor" stroke-width="1.5" stroke-linecap="round" stroke-linejoin="round"/>
  <path d="M8 16.5L7 22h10l-1-5.5" stroke="currentColor" stroke-width="1.5" stroke-linecap="round" stroke-linejoin="round"/></symbol><symbol id="i-info-circle" viewBox="0 0 24 24" fill="none" stroke="currentColor" stroke-width="2" stroke-linecap="round" stroke-linejoin="round"><path stroke="none" d="M0 0h24v24H0z" fill="none"/>
  <path d="M3 12a9 9 0 1 0 18 0a9 9 0 0 0 -18 0" />
  <path d="M12 9h.01" />
  <path d="M11 12h1v4h1" /></symbol><symbol id="i-injection" viewBox="0 0 24 24" fill="none" stroke-width="1.75" stroke-linecap="round" stroke-linejoin="round"><path d="M15 3l2 2-1 1 1 1-7 7-2-1-1 1-2-2 8-8 1 1 1-1z" stroke="currentColor" stroke-width="1.5" stroke-linecap="round" stroke-linejoin="round"/>
  <path d="M9 11l-5 5 1 3 3 1 5-5" stroke="currentColor" stroke-width="1.5" stroke-linecap="round" stroke-linejoin="round"/>
  <path d="M11 9l4 4" stroke="currentColor" stroke-width="1.5" stroke-linecap="round"/>
  <path d="M18 2l2 2" stroke="currentColor" stroke-width="1.5" stroke-linecap="round"/></symbol><symbol id="i-language" viewBox="0 0 24 24" fill="none" stroke="currentColor" stroke-width="2" stroke-linecap="round" stroke-linejoin="round"><path stroke="none" d="M0 0h24v24H0z" fill="none"/>
  <path d="M4 5h7" />
  <path d="M9 3v2c0 4.418 -2.239 8 -5 8" />
  <path d="M5 9c0 2.144 2.952 3.908 6.7 4" />
  <path d="M12 20l4 -9l4 9" />
  <path d="M19.1 18h-6.2" /></symbol><symbol id="i-list" viewBox="0 0 24 24" fill="none" stroke="currentColor" stroke-width="2" stroke-linecap="round" stroke-linejoin="round"><path stroke="none" d="M0 0h24v24H0z" fill="none"/>
  <path d="M9 6l11 0" />
  <path d="M9 12l11 0" />
  <path d="M9 18l11 0" />
  <path d="M5 6l0 .01" />
  <path d="M5 12l0 .01" />
  <path d="M5 18l0 .01" /></symbol><symbol id="i-map-pin" viewBox="0 0 24 24" fill="none" stroke="currentColor" stroke-width="2" stroke-linecap="round" stroke-linejoin="round"><path stroke="none" d="M0 0h24v24H0z" fill="none"/>
  <path d="M9 11a3 3 0 1 0 6 0a3 3 0 0 0 -6 0" />
  <path d="M17.657 16.657l-4.243 4.243a2 2 0 0 1 -2.827 0l-4.244 -4.243a8 8 0 1 1 11.314 0z" /></symbol><symbol id="i-message-circle" viewBox="0 0 24 24" fill="none" stroke="currentColor" stroke-width="2" stroke-linecap="round" stroke-linejoin="round"><path stroke="none" d="M0 0h24v24H0z" fill="none"/>
  <path d="M3 20l1.3 -3.9c-2.324 -3.437 -1.426 -7.872 2.1 -10.374c3.526 -2.501 8.59 -2.296 11.845 .48c3.255 2.777 3.695 7.266 1.029 10.501c-2.666 3.235 -7.615 4.215 -11.574 2.293l-4.7 1" /></symbol><symbol id="i-microscope" viewBox="0 0 24 24" fill="none" stroke="currentColor" stroke-width="2" stroke-linecap="round" stroke-linejoin="round"><path stroke="none" d="M0 0h24v24H0z" fill="none"/>
  <path d="M5 21h14" />
  <path d="M6 18h2" />
  <path d="M7 18v3" />
  <path d="M9 11l3 3l6 -6l-3 -3z" />
  <path d="M10.5 12.5l-1.5 1.5" />
  <path d="M17 3l3 3" />
  <path d="M12 21a6 6 0 0 0 3.715 -10.712" /></symbol><symbol id="i-minus" viewBox="0 0 24 24" fill="none" stroke="currentColor" stroke-width="2" stroke-linecap="round" stroke-linejoin="round"><path stroke="none" d="M0 0h24v24H0z" fill="none"/>
  <path d="M5 12l14 0" /></symbol><symbol id="i-pencil" viewBox="0 0 24 24" fill="none" stroke="currentColor" stroke-width="2" stroke-linecap="round" stroke-linejoin="round"><path stroke="none" d="M0 0h24v24H0z" fill="none"/>
  <path d="M4 20h4l10.5 -10.5a2.828 2.828 0 1 0 -4 -4l-10.5 10.5v4" />
  <path d="M13.5 6.5l4 4" /></symbol><symbol id="i-phone" viewBox="0 0 24 24" fill="none" stroke="currentColor" stroke-width="2" stroke-linecap="round" stroke-linejoin="round"><path stroke="none" d="M0 0h24v24H0z" fill="none"/>
  <path d="M5 4h4l2 5l-2.5 1.5a11 11 0 0 0 5 5l1.5 -2.5l5 2v4a2 2 0 0 1 -2 2a16 16 0 0 1 -15 -15a2 2 0 0 1 2 -2" /></symbol><symbol id="i-photo" viewBox="0 0 24 24" fill="none" stroke="currentColor" stroke-width="2" stroke-linecap="round" stroke-linejoin="round"><path stroke="none" d="M0 0h24v24H0z" fill="none"/>
  <path d="M15 8h.01" />
  <path d="M3 6a3 3 0 0 1 3 -3h12a3 3 0 0 1 3 3v12a3 3 0 0 1 -3 3h-12a3 3 0 0 1 -3 -3v-12z" />
  <path d="M3 16l5 -5c.928 -.893 2.072 -.893 3 0l5 5" />
  <path d="M14 14l1 -1c.928 -.893 2.072 -.893 3 0l3 3" /></symbol><symbol id="i-pill" viewBox="0 0 24 24" fill="none" stroke="currentColor" stroke-width="2" stroke-linecap="round" stroke-linejoin="round"><path stroke="none" d="M0 0h24v24H0z" fill="none"/>
  <path d="M4.5 12.5l8 -8a4.94 4.94 0 0 1 7 7l-8 8a4.94 4.94 0 0 1 -7 -7" />
  <path d="M8.5 8.5l7 7" /></symbol><symbol id="i-player-pause" viewBox="0 0 24 24" fill="none" stroke="currentColor" stroke-width="2" stroke-linecap="round" stroke-linejoin="round"><path stroke="none" d="M0 0h24v24H0z" fill="none"/>
  <path d="M6 5m0 1a1 1 0 0 1 1 -1h2a1 1 0 0 1 1 1v12a1 1 0 0 1 -1 1h-2a1 1 0 0 1 -1 -1z" />
  <path d="M14 5m0 1a1 1 0 0 1 1 -1h2a1 1 0 0 1 1 1v12a1 1 0 0 1 -1 1h-2a1 1 0 0 1 -1 -1z" /></symbol><symbol id="i-player-play" viewBox="0 0 24 24" fill="none" stroke="currentColor" stroke-width="2" stroke-linecap="round" stroke-linejoin="round"><path stroke="none" d="M0 0h24v24H0z" fill="none"/>
  <path d="M7 4v16l13 -8z" /></symbol><symbol id="i-point-filled" viewBox="0 0 24 24" fill="currentColor" stroke="none"><path stroke="none" d="M0 0h24v24H0z" fill="none"/>
  <path d="M12 7a5 5 0 1 1 -4.995 5.217l-.005 -.217l.005 -.217a5 5 0 0 1 4.995 -4.783z" /></symbol><symbol id="i-receipt" viewBox="0 0 24 24" fill="none" stroke="currentColor" stroke-width="2" stroke-linecap="round" stroke-linejoin="round"><path stroke="none" d="M0 0h24v24H0z" fill="none"/>
  <path d="M5 21v-16a2 2 0 0 1 2 -2h10a2 2 0 0 1 2 2v16l-3 -2l-2 2l-2 -2l-2 2l-2 -2l-3 2m4 -14h6m-6 4h6m-2 4h2" /></symbol><symbol id="i-refresh" viewBox="0 0 24 24" fill="none" stroke="currentColor" stroke-width="2" stroke-linecap="round" stroke-linejoin="round"><path stroke="none" d="M0 0h24v24H0z" fill="none"/>
  <path d="M20 11a8.1 8.1 0 0 0 -15.5 -2m-.5 -4v4h4" />
  <path d="M4 13a8.1 8.1 0 0 0 15.5 2m.5 4v-4h-4" /></symbol><symbol id="i-scissors" viewBox="0 0 24 24" fill="none" stroke="currentColor" stroke-width="2" stroke-linecap="round" stroke-linejoin="round"><path stroke="none" d="M0 0h24v24H0z" fill="none"/>
  <path d="M6 7m-3 0a3 3 0 1 0 6 0a3 3 0 1 0 -6 0" />
  <path d="M6 17m-3 0a3 3 0 1 0 6 0a3 3 0 1 0 -6 0" />
  <path d="M8.6 8.6l10.4 10.4" />
  <path d="M8.6 15.4l10.4 -10.4" /></symbol><symbol id="i-send" viewBox="0 0 24 24" fill="none" stroke="currentColor" stroke-width="2" stroke-linecap="round" stroke-linejoin="round"><path stroke="none" d="M0 0h24v24H0z" fill="none"/>
  <path d="M10 14l11 -11" />
  <path d="M21 3l-6.5 18a.55 .55 0 0 1 -1 0l-3.5 -7l-7 -3.5a.55 .55 0 0 1 0 -1l18 -6.5" /></symbol><symbol id="i-shield" viewBox="0 0 24 24" fill="none" stroke="currentColor" stroke-width="2" stroke-linecap="round" stroke-linejoin="round"><path stroke="none" d="M0 0h24v24H0z" fill="none"/>
  <path d="M12 3a12 12 0 0 0 8.5 3a12 12 0 0 1 -8.5 15a12 12 0 0 1 -8.5 -15a12 12 0 0 0 8.5 -3" /></symbol><symbol id="i-shield-check" viewBox="0 0 24 24" fill="none" stroke="currentColor" stroke-width="2" stroke-linecap="round" stroke-linejoin="round"><path stroke="none" d="M0 0h24v24H0z" fill="none"/>
  <path d="M11.46 20.846a12 12 0 0 1 -7.96 -14.846a12 12 0 0 0 8.5 -3a12 12 0 0 0 8.5 3a12 12 0 0 1 -.09 7.06" />
  <path d="M15 19l2 2l4 -4" /></symbol><symbol id="i-shield-exclamation" viewBox="0 0 24 24" fill="none" stroke="currentColor" stroke-width="2" stroke-linecap="round" stroke-linejoin="round"><path stroke="none" d="M0 0h24v24H0z" fill="none"/>
  <path d="M15.04 19.745c-.942 .551 -1.964 .976 -3.04 1.255a12 12 0 0 1 -8.5 -15a12 12 0 0 0 8.5 -3a12 12 0 0 0 8.5 3a12 12 0 0 1 .195 6.015" />
  <path d="M19 16v3" />
  <path d="M19 22v.01" /></symbol><symbol id="i-shield-lock" viewBox="0 0 24 24" fill="none" stroke="currentColor" stroke-width="2" stroke-linecap="round" stroke-linejoin="round"><path stroke="none" d="M0 0h24v24H0z" fill="none"/>
  <path d="M12 3a12 12 0 0 0 8.5 3a12 12 0 0 1 -8.5 15a12 12 0 0 1 -8.5 -15a12 12 0 0 0 8.5 -3" />
  <path d="M12 11m-1 0a1 1 0 1 0 2 0a1 1 0 1 0 -2 0" />
  <path d="M12 12l0 2.5" /></symbol><symbol id="i-sparkles" viewBox="0 0 24 24" fill="none" stroke="currentColor" stroke-width="2" stroke-linecap="round" stroke-linejoin="round"><path stroke="none" d="M0 0h24v24H0z" fill="none"/>
  <path d="M16 18a2 2 0 0 1 2 2a2 2 0 0 1 2 -2a2 2 0 0 1 -2 -2a2 2 0 0 1 -2 2zm0 -12a2 2 0 0 1 2 2a2 2 0 0 1 2 -2a2 2 0 0 1 -2 -2a2 2 0 0 1 -2 2zm-7 12a6 6 0 0 1 6 -6a6 6 0 0 1 -6 -6a6 6 0 0 1 -6 6a6 6 0 0 1 6 6z" /></symbol><symbol id="i-square-rounded" viewBox="0 0 24 24" fill="none" stroke="currentColor" stroke-width="2" stroke-linecap="round" stroke-linejoin="round"><path stroke="none" d="M0 0h24v24H0z" fill="none"/>
  <path d="M12 3c7.2 0 9 1.8 9 9s-1.8 9 -9 9s-9 -1.8 -9 -9s1.8 -9 9 -9z" /></symbol><symbol id="i-star" viewBox="0 0 24 24" fill="none" stroke="currentColor" stroke-width="2" stroke-linecap="round" stroke-linejoin="round"><path stroke="none" d="M0 0h24v24H0z" fill="none"/>
  <path d="M12 17.75l-6.172 3.245l1.179 -6.873l-5 -4.867l6.9 -1l3.086 -6.253l3.086 6.253l6.9 1l-5 4.867l1.179 6.873z" /></symbol><symbol id="i-star-filled" viewBox="0 0 24 24" fill="currentColor" stroke="none"><path stroke="none" d="M0 0h24v24H0z" fill="none"/>
  <path d="M8.243 7.34l-6.38 .925l-.113 .023a1 1 0 0 0 -.44 1.684l4.622 4.499l-1.09 6.355l-.013 .11a1 1 0 0 0 1.464 .944l5.706 -3l5.693 3l.1 .046a1 1 0 0 0 1.352 -1.1l-1.091 -6.355l4.624 -4.5l.078 -.085a1 1 0 0 0 -.633 -1.62l-6.38 -.926l-2.852 -5.78a1 1 0 0 0 -1.794 0l-2.853 5.78z" /></symbol><symbol id="i-sun" viewBox="0 0 24 24" fill="none" stroke="currentColor" stroke-width="2" stroke-linecap="round" stroke-linejoin="round"><path stroke="none" d="M0 0h24v24H0z" fill="none"/>
  <path d="M12 12m-4 0a4 4 0 1 0 8 0a4 4 0 1 0 -8 0" />
  <path d="M3 12h1m8 -9v1m8 8h1m-9 8v1m-6.4 -15.4l.7 .7m12.1 -.7l-.7 .7m0 11.4l.7 .7m-12.1 -.7l-.7 .7" /></symbol><symbol id="i-tooth" viewBox="0 0 24 24" fill="none" stroke-width="1.75" stroke-linecap="round" stroke-linejoin="round"><path d="M9 3C7.5 3 5 4.5 5 7.5c0 2 .8 3.2 1.4 5.2.6 2 .8 5 2 5 .8 0 1-.8 1.5-2 .5-1 1-1.8 2.1-1.8s1.6.8 2.1 1.8c.5 1.2.7 2 1.5 2 1.2 0 1.4-3 2-5 .6-2 1.4-3.2 1.4-5.2C19 4.5 16.5 3 15 3c-1 0-1.8.5-2.4 1C12.1 3.5 11 3 9 3z" stroke="currentColor" stroke-width="1.5" stroke-linecap="round" stroke-linejoin="round"/></symbol><symbol id="i-user-circle" viewBox="0 0 24 24" fill="none" stroke="currentColor" stroke-width="2" stroke-linecap="round" stroke-linejoin="round"><path stroke="none" d="M0 0h24v24H0z" fill="none"/>
  <path d="M12 12m-9 0a9 9 0 1 0 18 0a9 9 0 1 0 -18 0" />
  <path d="M12 10m-3 0a3 3 0 1 0 6 0a3 3 0 1 0 -6 0" />
  <path d="M6.168 18.849a4 4 0 0 1 3.832 -2.849h4a4 4 0 0 1 3.834 2.855" /></symbol><symbol id="i-users" viewBox="0 0 24 24" fill="none" stroke="currentColor" stroke-width="2" stroke-linecap="round" stroke-linejoin="round"><path stroke="none" d="M0 0h24v24H0z" fill="none"/>
  <path d="M9 7m-4 0a4 4 0 1 0 8 0a4 4 0 1 0 -8 0" />
  <path d="M3 21v-2a4 4 0 0 1 4 -4h4a4 4 0 0 1 4 4v2" />
  <path d="M16 3.13a4 4 0 0 1 0 7.75" />
  <path d="M21 21v-2a4 4 0 0 0 -3 -3.85" /></symbol><symbol id="i-x" viewBox="0 0 24 24" fill="none" stroke="currentColor" stroke-width="2" stroke-linecap="round" stroke-linejoin="round"><path stroke="none" d="M0 0h24v24H0z" fill="none"/>
  <path d="M18 6l-12 12" />
  <path d="M6 6l12 12" /></symbol><symbol id="i-zzz" viewBox="0 0 24 24" fill="none" stroke="currentColor" stroke-width="2" stroke-linecap="round" stroke-linejoin="round"><path stroke="none" d="M0 0h24v24H0z" fill="none"/>
  <path d="M4 12h6l-6 8h6" />
  <path d="M14 4h6l-6 8h6" /></symbol><symbol id="i-chevron-up" viewBox="0 0 24 24" fill="none" stroke="currentColor" stroke-width="2" stroke-linecap="round" stroke-linejoin="round"><path stroke="none" d="M0 0h24v24H0z" fill="none"/>
  <path d="M6 15l6 -6l6 6" /></symbol></svg>